/* XPM */
static char *_673633748103[] = {
/* columns rows colors chars-per-pixel */
"63 62 16 1 ",
"  c #00001C",
". c #00002C",
"X c #000034",
"o c #00004C",
"O c #000058",
"+ c #000064",
"@ c #000070",
"# c #00007C",
"$ c #000088",
"% c #000098",
"& c #0000A8",
"* c #0000B0",
"= c #0000BC",
"- c #0000D4",
"; c #0000E0",
": c #0000EC",
/* pixels */
"Oo#============****=*=*=*=*=*=$oOo#============****=*=*=*=*=*=$",
"Oo#==*===**=********=*=*=***=*$oOo#==*===**=********=*=*=***=*$",
"Oo#**=**==***&*****=*=*=****&*$oOo#**=**==***&*****=*=*=****&*$",
"Oo#*=****=**&*&=**=***=*=*=&*&$oOo#*=****=**&*&=**=***=*=*=&*&$",
"Oo#**=*****&*&=*=*&****&*=&*&&$oOo#**=*****&*&=*=*&****&*=&*&&$",
"Oo#***=***&*&*&=&=&&*&*&&&&&&*$oOo#***=***&*&*&=&=&&*&*&&&&&&*$",
"Oo#**&*&&&&&*&*&&&&&&*&=&&**&&$oOo#**&*&&&&&*&*&&&&&&*&=&&**&&$",
"Oo#&%*%&&&&%&*&&%&*&*%&&&%&&%&$oOo#&%*%&&&&%&*&&%&*&*%&&&%&&%&$",
"Oo#&$%&%$&%&%&%%&%%&%&&&%&$%&%$oOo#&$%&%$&%&%&%%&%%&%&&&%&$%&%$",
"Oo#$$$%$%$&$&%$&%$%$%$%$&$%$&%$oOo#$$$%$%$&$&%$&%$%$%$%$&$%$&%$",
"Oo#%$%$%%%$%$$&%%%$%$%$%$%$%$$$oOo#%$%$%%%$%$$&%%%$%$%$%$%$%$$$",
"Oo@@@+OoooXXXXXXXXXXXXooooO+@@@oOo@@@+OoooXXXXXXXXXXXXooooO+@@@",
"oX.............................XoX............................X",
"ooooooooooooooooooooooooooooooooooooooooooooooooooooooooooooooo",
"OOOOOOOOOOOOOOOOOOOOOOOOOOOOOOOOOOOOOOOOOOOOOOOOOOOOOOOOOOOOOOO",
"==--==---;;;;;;;;;;;;----======--=====---;;;;;;;;;;;;----==--==",
"*=**==***&*****=*=*=****&**=**==*****=**==***&*****=*=*=****&*&",
"=****=**&*&=**=***=*=*=&**=****=**&*=****=**&*&=**=***=*=*=&*&&",
"*=*****&*&=*=*&****&*=&*&**=*****&***=*****&*&=*=*&****&*=&*&&&",
"**=***&*&*&=&=&&*&*&&&&&&***=***&*&***=***&*&*&=&=&&*&*&&&&&&*&",
"ooooooooooooooooooooooooooooooooooooooooooooooooooooooooooooooo",
"OOOOOOOOOOOOOOOOOOOOOOOOO@#$%&&&%$#@OOOOOOOOOOOOOOOOOOOOOOOOOOO",
"######################@@#%&*-:::-*&%#@@########################",
"######################@#$&*=-;;;-=*&$#@########################",
"#####################@#@#&&&=---=&&&#@#@#######################",
"#####################@@@#%&&&=;=&&&%#@@@#######################",
"#####################@+@#$%&=-;-=&%$#@+@#######################",
"#####################O+@%&*=-;;;-=*&%@+O#######################",
"#####################oO%$$#@+$*$+@#$$%Oo#######################",
"#####################o+&o   .@*@.   o&+o#######################",
"#####################o@=o. .X@*@X. .o=@o#######################",
"#####################o$&#oo@&$*$&@oo#&$o#######################",
"#####################o$*-----@*@-----*$o#######################",
"#####################o#&--===X*X===--&#o#######################",
"#####################oO#%=**$ - $**=%#Oo#######################",
"#####################OoX@==*#O-O#*==@XoO#######################",
"#####################+OoX%&=*---*=&%XoO+#######################",
"#####################@+Oo$&=-:::-=&$oO+@#######################",
"######################@+o#%$+   +$%#o+@########################",
"#######################@+@%+ooooo+%@+@#########################",
"########################@++OOOOOOO++@##########################",
"#########################OO+++++++OO###########################",
"==--==---;;;;;;;;;;;;----======--=====---;;;;;;;;;;;;----==--==",
"*=**==***&*****=*=*=****&**=**==***&**=**==***&*****=*=*=****&*",
"=****=**&*&=**=***=*=*=&**=****=**&**=****=**&*&=**=***=*=*=&*&",
"*=*****&*&=*=*&****&*=&*&**=*****&*&**=*****&*&=*=*&****&*=&*&&",
"**=***&*&*&=&=&&*&*&&&&&&***=***&*&****=***&*&*&=&=&&*&*&&&&&&*",
"...............................................................",
"ooooooooooooooooooooooooooooooooooooooooooooooooooooooooooooooo",
"OOOOOOOOOOOOOOOOOOOOOOOOOOOOOOOOOOOOOOOOOOOOOOOOOOOOOOOOOOOOOOO",
"----------=*&%oOo%&*=---------------------=*&%oOo%&*=----------",
"**=*=*=*=*=*=$oOo#============****=*=*=*=*=*=$oOo#==========***",
"***=*=*=***=*$oOo#==*===**=********=*=*=***=*$oOo#==*===*******",
"**=*=*=****&*$oOo#**=**==***&*****=*=*=****&*$oOo#**=**==*&****",
"*=***=*=*=&*&$oOo#*=****=**&*&=**=***=*=*=&*&$oOo#*=****=**&=**",
"*&****&*=&*&&$oOo#**=*****&*&=*=*&****&*=&*&&$oOo#**=*****&=*==",
"=&&*&*&&&&&&*$oOo#***=***&*&*&=&=&&*&*&&&&&&*$oOo#***=***&*&=&&",
"&&&&*&=&&**&&$oOo#**&*&&&&&*&*&&&&&&*&=&&**&&$oOo#**&*&&&&&*&&&",
"&*&*%&&&%&&%&$oOo#&%*%&&&&%&*&&%&*&*%&&&%&&%&$oOo#&%*%&&&&*&&%%",
"%%&%&&&%&$%&%$oOo#&$%&%$&%&%&%%&%%&%&&&%&$%&%$oOo#&$%&%$&%&%%&&",
"$%$%$%$&$%$&%$oOo#$$$%$%$&$&%$&%$%$%$%$&$%$&%$oOo#$$$%$%$&%$&%%",
"%$%$%$%$%$%$$$oOo#%$%$%%%$%$$&%%%$%$%$%$%$%$$$oOo#%$%$%%%$$&%%%"
};
