/* XPM */
static char *_673633806325[] = {
/* columns rows colors chars-per-pixel */
"62 64 20 1 ",
"  c black",
". c gray11",
"X c #202020",
"o c #282828",
"O c #2C2C2C",
"+ c gray19",
"@ c gray22",
"# c #484848",
"$ c #4C4C4C",
"% c gray33",
"& c gray36",
"* c #646464",
"= c gray44",
"- c #7C7C7C",
"; c gray55",
": c #989898",
"> c gray66",
", c #B4B4B4",
"< c #C0C0C0",
"1 c gray99",
/* pixels */
" XXXXXXXXXXXXXXXXXXXXXXXXXXXXXXXXXXXXXXXXXXXXXXXXXXXXXXXXXXXXX",
"                                                              ",
"    @        @  O   % O     @             @     ;  %        @ ",
"       @               ;   @      @   %       @       O       ",
"@          1  O      @                     O @    ;           ",
"                               1        %               O   @ ",
"  -          %           >       >                O    =      ",
"  @  @    @        @         @      >                  O      ",
"                      @                   %         1 ;       ",
"         < @                                       X        O ",
"                   :               %         @     *  O    >  ",
"        @  @             %     %    - %   @      %        O  <",
"   %                %       >     %  #             O@         ",
"                #    ,     %                    O%O      #    ",
"              #       %        %     X                  >     ",
" >         *   -  @                 @       >  O          #   ",
"@                                  X                          ",
"         @                     @       -            O   #     ",
"      *  ;    #               >    O                         #",
"    @    %      #    O            X O                         ",
"          %        O        @   @         X   X  %            ",
"       =O         : *                                   #     ",
"         *      O                     X+X -            -      ",
"@    ;  ;        O            @      $   +   O               1",
" O   @            *      >  %          X             #        ",
"                     :          >   + X$X X              #    ",
"                             #         X       %              ",
"      *     %              -                        #         ",
"     >                   #  O                                 ",
"                  O           #            O           - *  # ",
"                 #          #                  #              ",
"                        O    O         #   O  -               ",
" =        O    O       O                            O   O     ",
"                          O       O                           ",
"   @                                  O                       ",
"                                    @  O                   O  ",
"                      O                                       ",
"             @                              ..        @       ",
" XXX  .XX X...X X..X  XX.    .XX. XXX  X X..XX X X.   .XX XX X",
"XXXXXXXXXXXXXXXXXXXXXXXXXXXXXX.XXXXXXXXXXXXXXXXXXXXXXXXXXXXXXX",
"ooXoXXooooXXooooXoooXooXoXoXoooXoooXXoXXXXoooXooXoooXXoXXoooXo",
"ooOooOoXoooOooXOOooOOooooOooXooooOoooXoOooOXooooooXOooXooooXoo",
"OOOOoOoOOOooOOOOoOoOOOoOoOoOOOoOooOOoOoOoOOOOoOoOOoOoOOooOooOO",
"OOoOO+OOoOO+oOooOO+o+Ooo+O+OoOOoOOOOOOOOOOooOOOOoOOoOOOOOOoOOo",
"Ooo+ooOO++OO++O+OOO++o+O+OO++O++OO+o+O+O+OO+OOO+OoOOOOO+O+OO+O",
"+O++OO+oo++oOO+OoO+O+OOO+O+O+OO+O++O+OOO+OO+O+OOO+OO+OO++O++O+",
"++OO+OO++O+++++oOO++O+OOO++O++OOO+O+O+O+++OOO+++O+++O+++OO+O+O",
"O+++O++O+++++O++OOOO++++O+++O++++++++O++O++++O++OO++O++O+O+OO+",
"+++++O+++++O+O++++++O+++++++++++O++O+O+O++++O+++++O+++OO+++++O",
"+++++++++++++++++++O+++++O++++O+++O+++++++++++++O+++++++++++++",
"++++++++++++++++++++++++++++++++++++++++++++++++++++++++++++++",
"++++++++++++++++++++++++++++++++++++++++++++++++++++++++++++++",
"++++++++++++++++++++++++++++++++++++++++++++++++++++++++++++++",
"++++++++++++++++++++++++++++++++++++++++++++++++++++++++++++++",
"++++++++++++++++++++++++++++++++++++++++++++++++++++++++++++++",
"++++++++++++++++++++++++++++++++++++++++++++++++++++++++++++++",
"++++++++++++++++++++++++++++++++++++++++++++++++++++++++++++++",
"++++++++++++++++++++++++++++++++++++++++++++++++++++++++++++++",
"@@@@@@@@@@@@@@@@@@@@@@@@@@@@@@@@@@@@@@@@@@@@@@@@@@@@@@@@@@@@@@",
"##############################################################",
"$$$$$$$$$$$$$$$$$$$$$$$$$$$$$$$$$$$$$$$$$$$$$$$$$$$$$$$$$$$$$$",
"%%%%%%%%%%%%%%%%%%%%%%%%%%%%%%%%%%%%%%%%%%%%%%%%%%%%%%%%%%%%%%",
"&&&&&&&&&&&&&&&&&&&&&&&&&&&&&&&&&&&&&&&&&&&&&&&&&&&&&&&&&&&&&&",
"**************************************************************",
"=============================================================="
};
