/* XPM */
static char *_673633795409[] = {
/* columns rows colors chars-per-pixel */
"64 64 39 1 ",
"  c #2C2C2C",
". c #343434",
"X c gray22",
"o c #403018",
"O c #483818",
"+ c #543C1C",
"@ c #5C4020",
"# c #6C4824",
"$ c #744C28",
"% c gray25",
"& c #4C4C4C",
"* c gray33",
"= c gray36",
"- c #646464",
"; c gray44",
": c #80502C",
"> c #885830",
", c #905C34",
"< c #9C6038",
"1 c #A0643C",
"2 c #A86840",
"3 c #B47044",
"4 c #BC7848",
"5 c #C87C4C",
"6 c #D08050",
"7 c #DC8854",
"8 c #E88C58",
"9 c #F0945C",
"0 c #FCA85C",
"q c #FC9C60",
"w c #FCA470",
"e c #FCB080",
"r c #FCB890",
"t c #FCBC9C",
"y c #FCC4A4",
"u c #FCCCB0",
"i c #FCD4BC",
"p c #FCD8C4",
"a c #FCE0D0",
/* pixels */
"***************************************************************X",
"*tttttttt5>%*ttttttttttttttt4< *qqqqq77777444:+ *errrrreeew6,.%.",
"*tiuyyyyr4>%*tyrrreeeeeeeeew51%*8eew999777764<$%=errrrreeew6,.%.",
"*tytrrrrw5>%=tyreewwwwwwwww941%*3ww8765433221,$%=weewwwwww94,.%.",
"*tyeeeee94>%=tyeww999qqqqqq841%*246321<11,,,>$@&=9w999999973>.%.",
"*trewwww83:%=tyewwq999qqqqq851%&&**&%%%%%%%%%%%*=79877777752:.%.",
"*eewqqqq72$%=tteqqqqq9999qq851%&*-;;;---===*****=68766666641$.%.",
"*we9999862$%*tyeq00qqq9999q841%*39wttrrrewq9742>=4766555553<$.%.",
"*ww9878751$%=tteq0q0wwq9999841%-9etttrtttytew941=3654444443,$.%.",
"*ww877764<#%=rteqqq0wwwq999741%-wttrttrtyuteq941*1433334432,#.%.",
"*ww766663,#%=rte0q0qwwq9999731%-tttrtttyyuteq941%#,<<122321,#.%.",
"*79655553,#%*erw0qqwwwq999873,%-ttrtttrtyyteq941.X.#$>,<<1<>#.%.",
"*78544441:@%=eeewqwwwq99988741%=tttttrtyyyteq941......#$$,,:#.%.",
"*6743332,$@%=weewww9qq99887641%=tutttttyyteeq841..%%X....#$$#.%.",
"*463221<:@.%=7ewww999998877531%*ettttttrreew963>%,3221>$%..@+X%.",
"*3431<,,$@.%=7wwww98887776532,%&4wwweewww99863,$%4986431,#..X%%.",
"*211,>$$#.%%*6999876655444321>%%&466665444443,$%299865432,#.%%%.",
"*&%%%%X..%%&*243322<<1111111>%%&&&1211111111>$%%699644433,#.%%%.",
"======*&%%&**&%%%%%%%%%%%%%%%%&***&%%%%%%%%%%%%1997433321:@X%%%X",
"yyyrewq9631>======*&&****=========****&%%231%%%3874211<,:#.@27e3",
"iuuuyyyteeeetrreew72&*rrrrrrrewq9876542%%24<%%%232,:::::#@.:5qr3",
"iuyyyyyyyyyyyyyyte93%&4764444444444443,%%>1:%%%$$#@@@@@@@ %<7yr3",
"iuuyyyyyttttttttte93%%%&&%%%%%%%%%%%%%%%&%%%%&%%.........%@2qur3",
"uuyyyyytrrrrreerre92%%&&&&%%%%&&****************&&&&&%%%%%:5tur3",
"yyyyyytreeeeeeeeee92%&>24322>%&>122223221111111111,,,>$#%%<7tyr3",
"rttttreeeeeeeeeeee92%*233332,%&,12222221<<<<<<<<,,,,,,:#.&2qytt3",
"rrrrreeeeeeeeeewww92%*32<<<<>.&$,,,,,,,,,,,,,,,,::::::$@X%5rtrr3",
"reeeeeeeeeeeewwwww82%*32<<<<:.&X##################@@@@@.%&7errr3",
"eewwwwwwwwwww9999982%*32<,,,:.%%.......................%%&qeeee3",
"98777777666666667762%*32,,,,>.%eutttteeq7,.$1111,,,,>#.%%*9w999,",
"2222222211112222222>%*32,,,<>.&iywwwwww972.,222211<<,:#.%&34222$",
"%%%%%%%%%%%%%%%%%%%%&*32,,,<>.*iyq99999972.$>>>>>::$$$#.%&%.... ",
"************=====*****32,,,<>.*iywww999872..............&&%%%%%.",
"*6wereeeeeeeeeeeeee1**33<,,<>.*iywwwwq9972.%**************&%%%%.",
"6eryuipaaaaaaaaapit4&*43<<,,:.*iywwqqqq972.*9teeeeewww97773,#%%.",
"wryuipaaaaapiiiiuyr6%*431<<<>.=iyewq00q972.*tttreeeww9999851#%%.",
"eyuippiiiiiuuyyyyte6%*431111>.=iyewq0qq972.*ereew99977777641$.%.",
"ryuiiiiuyyyyyyttrrw6%*431111,.=iyewqqq0972.*wew9777666666641$.%.",
"ryyuuyyyyttttrrrrew4%*432222,.=iyew0q0q972.*ww97666666666652$.%.",
"ryuyyyttrreeeeerte94%*442233,.=iyww0qqw972.*ww76666666766653>.%.",
"euuyyreeeeeeeerttr94%*4433341.=iywwwqww972.*ww86677777777763>.%.",
"euuytreeeeeeerrtte94%*6533451.=iywwwwww983.*7w87777777777774,.%.",
"euytreeeeereerrrre94%*6544551.=iyewwwwww94.*7q877777888888741.%.",
"eyreeeeeeeeeeeeeee93%*4544541.=iywwwwwwew4.*7w987778888888751.%.",
"weewwwwwwwwwwweew972%*222222>%=iywwwwwwww4.*79987777777788741.%.",
"499999999999999w9762%*&%....%%=utwweeeew94%&3665555555555543,.%.",
"%233333333333333322,%*=----====ytweerrew93%%>121<<<<<<<<111,$.%.",
"&%%%%%%%%%%%%%%%%%%%%*=qyyyq<==uyeerrrew72%%%%%...............%.",
"==-----==**--;;;-==*&*=euyyr3*=iytttree96<&&*=*****************X",
"eeeeeee51*1eitttttq42%*tyre92&=iiyytew963>%&=qetttttttttttttttt2",
"etyuuye95*3iyrrrrrq6,%=rrwq7<%*iiytew963>%&=7qetttttreeeeeeeeee2",
"99eeeew94&5ttewwww93:%=we9861%*iuee9863,%&=58wewwwww99999999999>",
"679999751&7rrw999862$%*qe9751%*iyw9742,%&=57qwq9887776666667766:",
"44566553<&9ew977753<#%&47764,X&e97531>%%*4689977665444444444444#",
",<<<<<<<>*we954432,:%%%%1332:X&1321,:%&&23222222211<,,,,,,,,,,,+",
"##$$$$$$%*995322<,$%%%%%.:,,#X%%%%%%%%%&>:$$$$$$$$$############o",
"X%%%%%%%%*442,,>$#%*4962%X#$%&********&%%%XX.................X%.",
"%*=*==**=***&%%%%%%*ee972%%%*8wttew97653<,:#************&&&%%%%.",
"*8rrrtrrttttrrrrt8&=rrw85,%&9etiiiyyytrrrrrrrrrrrrrrrrrrreer9<%.",
"=ryyytrrrrreeee973%*re975<.%eyytttrrrrreeeerreeeeeeeeeeeeeew7,..",
"*rreeeww999999951$%*ee9641.%rrewww999999999999999999999999963>..",
"*wew999877776653,@%*ee743,.%ww9888777777777777777777777766541:..",
"*798766666544331:@%*ew531>.%69976666666666665444444444444332,$..",
"*45332222211<,,,$@%*772<,$.%38754332222212221<<<<<<<<<1<<,,,$@..",
"*&$#####@@@@@@@@.X%*-,##@%.%:,<,>:$#######@@@@@@@@@@@@@@@@@@+O.."
};
